<svg width="48" height="48" viewBox="0 0 48 48" fill="none" xmlns="http://www.w3.org/2000/svg">
<path d="M47.8268 37.2967L45.0389 29.1833C46.3827 26.4363 47.0929 23.3812 47.0977 20.3072C47.1059 14.9622 45.038 9.90843 41.2747 6.07687C37.5106 2.24456 32.4948 0.0872788 27.1511 0.00262255C21.61 -0.0849399 16.4016 2.02275 12.4859 5.93831C8.71024 9.7139 6.61605 14.6914 6.54977 20.0104C2.82846 22.8122 0.63199 27.1805 0.639208 31.8463C0.642677 34.0297 1.13411 36.2001 2.06533 38.1628L0.145052 43.7511C-0.185042 44.7117 0.0560832 45.7548 0.774396 46.4731C1.2799 46.9787 1.94636 47.2478 2.63177 47.2478C2.92015 47.2478 3.2119 47.2002 3.49643 47.1024L9.08477 45.1822C11.0474 46.1134 13.2178 46.6048 15.4013 46.6083H15.4245C20.1598 46.6081 24.5614 44.355 27.353 40.5425C30.258 40.466 33.1323 39.7627 35.7308 38.4916L43.8443 41.2795C44.1748 41.3936 44.522 41.452 44.8717 41.4523C45.6862 41.4523 46.4782 41.1324 47.079 40.5315C47.9325 39.6779 48.219 38.4384 47.8268 37.2967ZM15.4243 43.7512H15.4057C13.4731 43.7482 11.554 43.2718 9.85605 42.3735C9.68337 42.2822 9.4938 42.2272 9.29905 42.212C9.10429 42.1968 8.90849 42.2217 8.72374 42.2852L2.99346 44.2542L4.96249 38.524C5.02596 38.3393 5.05087 38.1435 5.03568 37.9487C5.02049 37.754 4.96552 37.5644 4.87418 37.3917C3.97586 35.6937 3.49943 33.7747 3.49643 31.842C3.49165 28.7333 4.70093 25.7869 6.81565 23.5806C7.5064 27.7914 9.5133 31.6717 12.6241 34.7272C15.712 37.7602 19.5934 39.6912 23.7814 40.3225C21.57 42.5021 18.5891 43.7512 15.4243 43.7512ZM45.0585 38.5112C44.9772 38.5925 44.8809 38.6146 44.7725 38.5773L36.0867 35.5927C35.902 35.5291 35.7062 35.5042 35.5115 35.5194C35.3167 35.5346 35.1272 35.5896 34.9545 35.681C32.4746 36.9929 29.6722 37.6887 26.8501 37.693H26.8231C17.3672 37.693 9.55661 30.0117 9.4068 20.5581C9.33133 15.797 11.1424 11.3224 14.5062 7.95853C17.8701 4.59468 22.3454 2.78428 27.1059 2.85928C36.5686 3.00937 44.2552 10.8344 44.2406 20.3027C44.2361 23.1247 43.5404 25.9272 42.2286 28.407C42.1372 28.5797 42.0823 28.7692 42.0671 28.964C42.0519 29.1588 42.0768 29.3546 42.1403 29.5393L45.1248 38.2251C45.162 38.3338 45.1397 38.4301 45.0585 38.5112Z" fill="#59B5FF"/>
<path d="M35.3335 12.7031H18.3122C17.5232 12.7031 16.8836 13.3428 16.8836 14.1317C16.8836 14.9207 17.5233 15.5603 18.3122 15.5603H35.3335C36.1225 15.5603 36.762 14.9206 36.762 14.1317C36.762 13.3428 36.1225 12.7031 35.3335 12.7031ZM35.3335 18.5785H18.3122C17.5232 18.5785 16.8836 19.2182 16.8836 20.0071C16.8836 20.796 17.5233 21.4357 18.3122 21.4357H35.3335C36.1225 21.4357 36.762 20.796 36.762 20.0071C36.762 19.2182 36.1225 18.5785 35.3335 18.5785ZM28.7815 24.4537H18.3121C17.5231 24.4537 16.8835 25.0934 16.8835 25.8823C16.8835 26.6713 17.5232 27.3109 18.3121 27.3109H28.7814C29.5704 27.3109 30.2099 26.6712 30.2099 25.8823C30.2099 25.0934 29.5705 24.4537 28.7815 24.4537Z" fill="#59B5FF"/>
</svg>
