<svg width="48" height="48" viewBox="0 0 48 48" fill="none" xmlns="http://www.w3.org/2000/svg">
<path d="M4.99963 16.4587H8.99963C9.26485 16.4587 9.51921 16.3674 9.70674 16.2049C9.89428 16.0425 9.99963 15.8221 9.99963 15.5924V13.5739C10.002 13.0348 9.81081 12.5084 9.45247 12.0676C9.09413 11.6268 8.5864 11.2934 7.99963 11.1137V9.57171L12.6396 10.9145L11.0596 15.0293C11.0144 15.1477 10.9991 15.2731 11.015 15.397C11.0308 15.521 11.0774 15.6405 11.1514 15.7474C11.2255 15.8543 11.3253 15.9461 11.4441 16.0165C11.5628 16.087 11.6978 16.1344 11.8396 16.1555L23.8396 17.888H24.1696L36.1696 16.1555C36.3115 16.1344 36.4464 16.087 36.5652 16.0165C36.684 15.9461 36.7838 15.8543 36.8578 15.7474C36.9319 15.6405 36.9784 15.521 36.9943 15.397C37.0101 15.2731 36.9949 15.1477 36.9496 15.0293L35.3596 10.9145L43.3596 8.6188C43.5523 8.56287 43.7208 8.45741 43.8426 8.31645C43.9644 8.17549 44.0337 8.00574 44.0413 7.8298C44.0489 7.65386 43.9944 7.48009 43.8851 7.33164C43.7759 7.18319 43.617 7.06711 43.4296 6.99886L24.4296 0.0685966C24.3063 0.0233273 24.1736 0 24.0396 0C23.9056 0 23.773 0.0233273 23.6496 0.0685966L4.64963 6.99886C4.46229 7.06711 4.3034 7.18319 4.19413 7.33164C4.08486 7.48009 4.0304 7.65386 4.038 7.8298C4.04561 8.00574 4.11491 8.17549 4.23669 8.31645C4.35846 8.45741 4.52692 8.56287 4.71963 8.6188L6.03963 8.99997V11.1137C5.45286 11.2934 4.94514 11.6268 4.58679 12.0676C4.22845 12.5084 4.03723 13.0348 4.03963 13.5739V15.5924C4.03943 15.8163 4.13928 16.0315 4.31825 16.193C4.49722 16.3545 4.74141 16.4497 4.99963 16.4587ZM23.9996 16.1555L13.3196 14.6135L14.8596 10.6026C15.5396 10.1261 18.4096 8.37625 23.9996 8.37625C29.5896 8.37625 32.4596 10.1088 33.1396 10.6026L34.6796 14.6135L23.9996 16.1555ZM23.9996 1.80982L40.1596 7.70921L34.6796 9.2945C34.6269 9.3164 34.5767 9.3425 34.5296 9.37247C33.7796 8.80072 30.5296 6.65234 23.9996 6.65234C17.4696 6.65234 14.2196 8.80072 13.4696 9.37247C13.4222 9.34549 13.3719 9.3223 13.3196 9.30317L7.83963 7.71787L23.9996 1.80982ZM5.99963 13.5826C5.98734 13.4662 6.00476 13.3488 6.05067 13.2389C6.09657 13.129 6.16984 13.0291 6.26527 12.9464C6.3607 12.8638 6.47596 12.8003 6.60287 12.7605C6.72978 12.7208 6.86524 12.7057 6.99963 12.7163C7.13403 12.7057 7.26949 12.7208 7.3964 12.7605C7.52331 12.8003 7.63857 12.8638 7.734 12.9464C7.82943 13.0291 7.9027 13.129 7.9486 13.2389C7.99451 13.3488 8.01193 13.4662 7.99963 13.5826V14.7261H5.99963V13.5826ZM44.9296 22.4793V21.3185C44.9284 21.016 44.8574 20.7168 44.7208 20.4384C44.5842 20.16 44.3847 19.9081 44.1341 19.6974C43.8835 19.4868 43.5868 19.3217 43.2615 19.2118C42.9361 19.1019 42.5887 19.0494 42.2396 19.0575C35.9799 19.1212 29.7908 20.2118 23.9996 22.2714C18.2085 20.2118 12.0194 19.1212 5.75963 19.0575C5.40906 19.0454 5.05938 19.0961 4.73245 19.2064C4.40552 19.3167 4.10839 19.4842 3.85963 19.6986C3.60881 19.9086 3.40954 20.1603 3.27379 20.4387C3.13804 20.7171 3.0686 21.0163 3.06963 21.3185V22.4793C2.19367 22.6701 1.41616 23.1085 0.860125 23.7251C0.304092 24.3417 0.00129122 25.1014 -0.000366211 25.8838V44.4742C-0.000366211 45.4093 0.428436 46.3061 1.19171 46.9673C1.95498 47.6285 2.9902 48 4.06963 48H43.9296C45.0091 48 46.0443 47.6285 46.8076 46.9673C47.5708 46.3061 47.9996 45.4093 47.9996 44.4742V25.8838C47.998 25.1014 47.6952 24.3417 47.1391 23.7251C46.5831 23.1085 45.8056 22.6701 44.9296 22.4793ZM42.2896 20.7901C42.3728 20.789 42.4554 20.8023 42.5326 20.8291C42.6099 20.8558 42.6802 20.8956 42.7396 20.946C42.7998 20.9948 42.8478 21.0539 42.8805 21.1194C42.9132 21.185 42.9299 21.2557 42.9296 21.3272V42.4471C42.9297 42.5843 42.8682 42.7162 42.7581 42.8148C42.648 42.9134 42.4979 42.9711 42.3396 42.9756C36.414 43.0521 30.5481 44.0133 24.9996 45.817V23.7874C30.5051 21.8873 36.364 20.8716 42.2896 20.7901ZM5.05963 21.3185C5.05937 21.2471 5.0761 21.1764 5.10879 21.1108C5.14148 21.0452 5.18943 20.9862 5.24963 20.9373C5.30753 20.8876 5.37619 20.8481 5.4517 20.8214C5.5272 20.7946 5.60806 20.781 5.68963 20.7814C11.6226 20.8636 17.4885 21.8823 22.9996 23.7874V45.817C17.4486 44.0093 11.5792 43.0452 5.64963 42.9669C5.49134 42.9624 5.34128 42.9047 5.23117 42.8061C5.12106 42.7075 5.05955 42.5757 5.05963 42.4385V21.3185ZM1.99963 44.4742V25.8838C2.0008 25.5648 2.10068 25.2518 2.28886 24.9776C2.47705 24.7034 2.74666 24.4778 3.06963 24.3245V42.4471C3.06683 43.0348 3.33029 43.5999 3.80339 44.0211C4.27648 44.4423 4.92144 44.6859 5.59963 44.6995C9.8402 44.7865 14.0535 45.3129 18.1496 46.2674H4.06963C3.52064 46.2674 2.99412 46.0785 2.60592 45.7422C2.21772 45.4059 1.99963 44.9498 1.99963 44.4742ZM45.9996 44.4742C45.9996 44.9498 45.7815 45.4059 45.3933 45.7422C45.0051 46.0785 44.4786 46.2674 43.9296 46.2674H29.8296C33.9322 45.3115 38.1524 44.785 42.3996 44.6995C43.0778 44.6859 43.7228 44.4423 44.1959 44.0211C44.669 43.5999 44.9324 43.0348 44.9296 42.4471V24.3245C45.2526 24.4778 45.5222 24.7034 45.7104 24.9776C45.8986 25.2518 45.9985 25.5648 45.9996 25.8838V44.4742Z" fill="#59B5FF"/>
<path d="M7.82953 24.775C8.82953 24.8357 9.82953 24.9136 10.8295 25.0176H10.9995C11.2647 25.0314 11.5254 24.9533 11.7242 24.8006C11.923 24.6479 12.0436 24.433 12.0595 24.2033C12.0754 23.9735 11.9853 23.7477 11.8091 23.5755C11.6328 23.4033 11.3847 23.2988 11.1195 23.285C10.1195 23.1724 9.02953 23.0945 7.99953 23.0338C7.73431 23.0189 7.47311 23.0958 7.27338 23.2477C7.07366 23.3996 6.95177 23.614 6.93453 23.8438C6.91729 24.0735 7.00611 24.2998 7.18146 24.4728C7.35681 24.6459 7.60431 24.7514 7.86953 24.7664L7.82953 24.775ZM6.89953 26.5942C6.88306 26.8227 6.97163 27.0475 7.14589 27.2195C7.32014 27.3916 7.56592 27.4969 7.82953 27.5125C9.69271 27.6181 11.5485 27.8061 13.3895 28.0756H13.5595C13.8247 28.0951 14.0881 28.0226 14.2915 27.8739C14.495 27.7253 14.622 27.5127 14.6445 27.2829C14.6671 27.0532 14.5833 26.8251 14.4117 26.6488C14.2401 26.4725 13.9947 26.3625 13.7295 26.343C11.8316 26.0743 9.91913 25.8892 7.99953 25.7886C7.86576 25.7767 7.73059 25.7883 7.60211 25.8227C7.47364 25.8571 7.35449 25.9136 7.2518 25.9888C7.14911 26.064 7.06498 26.1564 7.00445 26.2604C6.94393 26.3645 6.90824 26.478 6.89953 26.5942ZM6.89953 31.2462C6.88306 31.4746 6.97163 31.6994 7.14589 31.8715C7.32014 32.0435 7.56592 32.1489 7.82953 32.1644C11.9025 32.386 15.9307 33.0257 19.8295 34.0703C19.929 34.0833 20.0301 34.0833 20.1295 34.0703C20.3947 34.1047 20.6649 34.0465 20.8806 33.9084C21.0962 33.7703 21.2397 33.5637 21.2795 33.3339C21.3193 33.1042 21.2521 32.8701 21.0927 32.6833C20.9333 32.4965 20.6947 32.3721 20.4295 32.3377C16.387 31.283 12.2147 30.6462 7.99953 30.4405C7.86576 30.4286 7.73059 30.4402 7.60211 30.4746C7.47364 30.509 7.35449 30.5655 7.2518 30.6407C7.14911 30.716 7.06498 30.8083 7.00445 30.9124C6.94393 31.0164 6.90824 31.1299 6.89953 31.2462ZM20.4595 35.6555C16.4114 34.5697 12.2288 33.9038 7.99953 33.6718C7.86821 33.6644 7.73649 33.6794 7.6119 33.7162C7.48731 33.7529 7.37228 33.8105 7.27338 33.8857C7.17449 33.9609 7.09366 34.0522 7.03552 34.1545C6.97738 34.2568 6.94306 34.368 6.93453 34.4817C6.92599 34.5955 6.94341 34.7096 6.98577 34.8175C7.02814 34.9255 7.09464 35.0251 7.18146 35.1108C7.26828 35.1964 7.37373 35.2665 7.49179 35.3168C7.60985 35.3672 7.73821 35.3969 7.86953 35.4043C11.9425 35.6261 15.9706 36.2659 19.8695 37.3101C19.969 37.3232 20.0701 37.3232 20.1695 37.3101C20.4347 37.3446 20.7049 37.2864 20.9206 37.1483C21.1362 37.0102 21.2797 36.8036 21.3195 36.5738C21.3593 36.3441 21.2921 36.11 21.1327 35.9232C20.9733 35.7364 20.7347 35.612 20.4695 35.5776L20.4595 35.6555ZM20.4595 38.9821C16.4094 37.9107 12.2268 37.2594 7.99953 37.0416C7.86821 37.0342 7.73649 37.0493 7.6119 37.086C7.48731 37.1227 7.37228 37.1803 7.27338 37.2555C7.07366 37.4074 6.95177 37.6218 6.93453 37.8516C6.91729 38.0813 7.00611 38.3076 7.18146 38.4806C7.35681 38.6536 7.60431 38.7592 7.86953 38.7742C11.9425 38.9957 15.9707 39.6355 19.8695 40.68C19.969 40.6931 20.0701 40.6931 20.1695 40.68C20.4347 40.7144 20.7049 40.6562 20.9206 40.5181C21.1362 40.38 21.2797 40.1734 21.3195 39.9436C21.3593 39.7139 21.2921 39.4799 21.1327 39.293C20.9733 39.1062 20.7347 38.9819 20.4695 38.9474L20.4595 38.9821ZM27.8295 34.1136C27.929 34.1266 28.0301 34.1266 28.1295 34.1136C32.0283 33.069 36.0565 32.4292 40.1295 32.2077C40.2608 32.2003 40.3892 32.1706 40.5073 32.1203C40.6253 32.0699 40.7308 31.9999 40.8176 31.9142C40.9044 31.8285 40.9709 31.7289 41.0133 31.621C41.0557 31.513 41.0731 31.3989 41.0645 31.2852C41.056 31.1714 41.0217 31.0602 40.9635 30.9579C40.9054 30.8557 40.8246 30.7643 40.7257 30.6891C40.6268 30.6139 40.5117 30.5563 40.3872 30.5196C40.2626 30.4829 40.1308 30.4678 39.9995 30.4752C35.7567 30.7041 31.5605 31.3701 27.4995 32.459C27.2343 32.4934 26.9958 32.6177 26.8364 32.8046C26.6769 32.9914 26.6097 33.2254 26.6495 33.4552C26.6893 33.6849 26.8328 33.8916 27.0485 34.0297C27.2642 34.1678 27.5343 34.226 27.7995 34.1915L27.8295 34.1136ZM27.8295 37.3448C27.929 37.3579 28.0301 37.3579 28.1295 37.3448C32.0284 36.3004 36.0566 35.6607 40.1295 35.439C40.3931 35.4234 40.6389 35.3181 40.8132 35.146C40.9874 34.974 41.076 34.7492 41.0595 34.5207C41.0571 34.4039 41.0274 34.2887 40.9722 34.1821C40.9171 34.0755 40.8376 33.9797 40.7385 33.9004C40.6395 33.8211 40.523 33.7599 40.396 33.7206C40.269 33.6814 40.1341 33.6647 39.9995 33.6718C35.7567 33.901 31.5606 34.5669 27.4995 35.6555C27.2343 35.69 26.9958 35.8143 26.8364 36.0012C26.6769 36.188 26.6097 36.422 26.6495 36.6518C26.6893 36.8815 26.8328 37.0882 27.0485 37.2263C27.2642 37.3644 27.5343 37.4226 27.7995 37.3881L27.8295 37.3448ZM27.8295 40.7146C27.929 40.7277 28.0301 40.7277 28.1295 40.7146C32.0283 39.67 36.0565 39.0303 40.1295 38.8088C40.3947 38.7939 40.6423 38.6883 40.8176 38.5153C40.9929 38.3422 41.0818 38.116 41.0645 37.8862C41.0473 37.6565 40.9254 37.4421 40.7257 37.2902C40.5259 37.1383 40.2647 37.0613 39.9995 37.0762C35.7705 37.2819 31.5845 37.9216 27.5295 38.9821C27.2643 39.0165 27.0258 39.1409 26.8664 39.3277C26.707 39.5145 26.6397 39.7485 26.6795 39.9783C26.7193 40.208 26.8628 40.4147 27.0785 40.5528C27.2942 40.6909 27.5643 40.7491 27.8295 40.7146Z" fill="#59B5FF"/>
</svg>
