<svg width="48" height="48" viewBox="0 0 48 48" fill="none" xmlns="http://www.w3.org/2000/svg">
<path d="M33.7834 0H2.38391C1.75125 0.00135785 1.14493 0.261802 0.697962 0.724204C0.25099 1.18661 -0.000148435 1.81321 -0.000366211 2.46658V45.5318C-0.000148436 46.185 0.250902 46.8113 0.69772 47.2736C1.14454 47.7358 1.75064 47.9962 2.38308 47.9975H28.5348C28.7632 48.0198 28.9701 47.8881 29.1414 47.7471L35.921 40.7644C36.0783 40.5995 36.1478 40.3798 36.1685 40.1559V2.46658C36.1682 1.81321 35.9171 1.18661 35.4701 0.724204C35.0232 0.261802 34.416 0.00135785 33.7834 0ZM1.65481 45.5318V2.46658C1.65481 2.0495 1.9817 1.70934 2.38308 1.70934H33.7834C34.1856 1.70934 34.5116 2.0495 34.5116 2.46658V39.2995H30.1089C29.6636 39.2995 29.2515 39.4346 28.8948 39.6542H12.2479C12.0284 39.6542 11.8179 39.7443 11.6627 39.9046C11.5075 40.0648 11.4203 40.2822 11.4203 40.5089C11.4203 40.7356 11.5075 40.953 11.6627 41.1132C11.8179 41.2735 12.0284 41.3636 12.2479 41.3636H27.7652C27.7436 41.4952 27.7254 41.6285 27.7254 41.7653V46.2882H2.38308C2.18934 46.2875 2.00377 46.2075 1.86708 46.0657C1.7304 45.9239 1.65459 45.7319 1.65481 45.5318ZM29.3789 45.0874V41.7661C29.3789 41.3482 29.7067 41.0089 30.1089 41.0089H33.3389L29.3789 45.0874Z" fill="#59B5FF"/>
<path d="M9.55743 5.58368C10.6432 5.56659 10.6457 3.89229 9.55743 3.87434H6.40929C6.1898 3.87434 5.9793 3.96438 5.8241 4.12467C5.66889 4.28495 5.5817 4.50234 5.5817 4.72901V11.245C5.5817 11.4717 5.66889 11.6891 5.8241 11.8494C5.9793 12.0097 6.1898 12.0997 6.40929 12.0997H9.55743C10.6449 12.0792 10.6449 10.41 9.55743 10.3904H7.23687V8.84169H9.55743C10.644 8.82289 10.6457 7.15115 9.55743 7.13235H7.23687V5.58368H9.55743ZM11.9508 12.0997C12.0987 12.0999 12.244 12.0592 12.3715 11.9818C12.499 11.9044 12.604 11.7931 12.6758 11.6595L13.7028 9.74765L14.7315 11.6587C15.2645 12.633 16.6995 11.8057 16.1781 10.828L14.6496 7.98702L16.1773 5.14353C16.6887 4.15467 15.2752 3.34102 14.7298 4.31449L13.702 6.22725L12.6741 4.3162C12.132 3.3453 10.7136 4.15382 11.2275 5.14609L12.756 7.98788L11.2283 10.8305C10.9138 11.3784 11.34 12.1159 11.9508 12.0997ZM18.1031 12.0544C18.2057 12.0914 18.3144 12.1072 18.423 12.1008C18.5315 12.0944 18.6378 12.066 18.7357 12.0172C18.8336 11.9684 18.9213 11.9001 18.9936 11.8163C19.066 11.7325 19.1216 11.6348 19.1574 11.5288L19.6623 10.0314H21.4904L21.9952 11.5288C22.3751 12.586 23.8995 12.0296 23.5594 10.9656L21.358 4.44611C21.1312 3.69657 20.0214 3.694 19.7947 4.44611L17.5941 10.9656C17.5583 11.0716 17.543 11.1838 17.5492 11.2959C17.5554 11.408 17.5829 11.5178 17.6301 11.6189C17.6774 11.72 17.7435 11.8105 17.8246 11.8852C17.9058 11.96 18.0004 12.0175 18.1031 12.0544ZM20.9136 8.32205H20.2391L20.5767 7.3238L20.9136 8.32205ZM25.8336 12.1023C26.0531 12.1023 26.2636 12.0122 26.4188 11.8519C26.574 11.6917 26.6612 11.4743 26.6612 11.2476V7.73062L27.0857 8.43914C27.3836 8.9716 28.1947 8.9716 28.4926 8.43914L28.9229 7.72293L28.9296 11.2433C28.93 11.47 29.0176 11.6872 29.1731 11.8472C29.3286 12.0071 29.5393 12.0967 29.7588 12.0963C29.9783 12.0958 30.1886 12.0054 30.3435 11.8447C30.4984 11.6841 30.5852 11.4666 30.5847 11.2399L30.5723 4.72987C30.5971 3.89571 29.4443 3.55469 29.0413 4.28116L27.79 6.36656L26.537 4.27689C26.1323 3.55298 24.9795 3.89058 25.006 4.7273V11.2476C25.006 11.4743 25.0932 11.6917 25.2484 11.8519C25.4036 12.0122 25.6141 12.1023 25.8336 12.1023ZM9.1726 17.6405H6.33067C5.24322 17.6602 5.24239 19.3311 6.33067 19.3499H9.17343C10.2609 19.3319 10.2609 17.6602 9.1726 17.6405ZM29.8374 17.6405H12.2471C12.0276 17.6405 11.8171 17.7306 11.6619 17.8909C11.5067 18.0512 11.4195 18.2685 11.4195 18.4952C11.4195 18.7219 11.5067 18.9393 11.6619 19.0996C11.8171 19.2598 12.0276 19.3499 12.2471 19.3499H29.8374C30.9199 19.3328 30.9298 17.6602 29.8374 17.6405ZM9.1726 23.1446H6.33067C5.24322 23.1634 5.24239 24.8352 6.33067 24.854H9.17343C10.2609 24.8352 10.2609 23.1634 9.1726 23.1446ZM29.8374 23.1446H12.2471C12.0276 23.1446 11.8171 23.2347 11.6619 23.395C11.5067 23.5552 11.4195 23.7726 11.4195 23.9993C11.4195 24.226 11.5067 24.4434 11.6619 24.6036C11.8171 24.7639 12.0276 24.854 12.2471 24.854H29.8374C30.9199 24.8369 30.9298 23.1643 29.8374 23.1446ZM9.1726 28.6479H6.33067C5.24322 28.6667 5.24239 30.3384 6.33067 30.3572H9.17343C10.2609 30.3384 10.2609 28.6667 9.1726 28.6479ZM29.8374 28.6479H12.2471C12.0276 28.6479 11.8171 28.7379 11.6619 28.8982C11.5067 29.0585 11.4195 29.2759 11.4195 29.5025C11.4195 29.7292 11.5067 29.9466 11.6619 30.1069C11.8171 30.2672 12.0276 30.3572 12.2471 30.3572H29.8374C30.9199 30.3401 30.9298 28.6675 29.8374 28.6479ZM9.1726 34.1511H6.33067C5.24322 34.1699 5.24239 35.8416 6.33067 35.8604H9.17343C10.2609 35.8416 10.2609 34.1699 9.1726 34.1511ZM29.8374 34.1511H12.2471C12.0276 34.1511 11.8171 34.2411 11.6619 34.4014C11.5067 34.5617 11.4195 34.7791 11.4195 35.0058C11.4195 35.2324 11.5067 35.4498 11.6619 35.6101C11.8171 35.7704 12.0276 35.8604 12.2471 35.8604H29.8374C30.9199 35.8433 30.9298 34.1708 29.8374 34.1511ZM9.1726 39.6543H6.33067C5.24322 39.6731 5.24239 41.3449 6.33067 41.3637H9.17343C10.2609 41.3449 10.2609 39.674 9.1726 39.6543ZM45.4358 7.78019H45.3704V4.37005C45.3704 2.6325 44.0049 1.21973 42.3265 1.21973C40.6482 1.21973 39.2818 2.6325 39.2818 4.36919V34.9596C39.281 35.0827 39.31 35.1972 39.3522 35.3041L41.5693 40.4988C41.8292 41.1637 42.8239 41.1714 43.0838 40.4988L45.3009 35.3041C45.3423 35.1972 45.372 35.0818 45.3704 34.9596V9.49039C45.4951 9.48223 45.6202 9.50051 45.7378 9.54412C45.8555 9.58773 45.9632 9.65574 46.0545 9.74397C46.1457 9.83219 46.2185 9.93877 46.2684 10.0571C46.3183 10.1755 46.3441 10.3032 46.3445 10.4322V20.3464C46.361 21.4695 47.9823 21.4686 47.9996 20.3464V10.4322C47.9996 8.96989 46.8493 7.78019 45.4358 7.78019ZM42.3265 2.92907C43.0929 2.92907 43.7152 3.5752 43.7152 4.36919V7.78019H40.937V4.37005C40.937 3.5752 41.5602 2.92907 42.3265 2.92907ZM42.3265 38.0347L41.3789 35.8143H43.2741L42.3265 38.0347ZM43.7152 34.1049H40.937V9.49039H43.7152V34.1049Z" fill="#59B5FF"/>
</svg>
