<svg width="48" height="48" viewBox="0 0 48 48" fill="none" xmlns="http://www.w3.org/2000/svg">
<path d="M23.9996 31.7419C23.9996 33.2731 24.4537 34.77 25.3044 36.0431C26.1551 37.3163 27.3642 38.3086 28.7788 38.8946C30.1935 39.4805 31.7501 39.6338 33.2519 39.3351C34.7537 39.0364 36.1332 38.299 37.2159 37.2163C38.2986 36.1336 39.036 34.7541 39.3347 33.2523C39.6334 31.7505 39.4801 30.1939 38.8941 28.7792C38.3082 27.3646 37.3159 26.1554 36.0427 25.3048C34.7696 24.4541 33.2727 24 31.7415 24C29.6889 24.0023 27.7211 24.8186 26.2697 26.2701C24.8183 27.7215 24.0019 29.6893 23.9996 31.7419ZM29.419 26.0044V30.9677H25.6014C25.7406 29.8763 26.1675 28.8415 26.8383 27.9693C27.5091 27.0971 28.3998 26.419 29.419 26.0044ZM25.6014 32.5161H30.1932C30.3985 32.5161 30.5954 32.4346 30.7406 32.2894C30.8858 32.1442 30.9673 31.9473 30.9673 31.7419V25.6018C31.224 25.5679 31.4826 25.5501 31.7415 25.5484C32.5379 25.5486 33.3267 25.7035 34.0641 26.0044V37.4795C33.1855 37.8372 32.2363 37.9878 31.2901 37.9196C30.3439 37.8515 29.4261 37.5664 28.6078 37.0864C27.7895 36.6065 27.0927 35.9446 26.5713 35.1521C26.05 34.3595 25.7181 33.4576 25.6014 32.5161ZM37.9351 31.7419C37.9348 32.6692 37.7259 33.5846 37.3238 34.4202C36.9218 35.2557 36.3369 35.9902 35.6125 36.569V26.9148C36.3369 27.4937 36.9218 28.2281 37.3238 29.0637C37.7259 29.8993 37.9348 30.8147 37.9351 31.7419Z" fill="#59B5FF"/>
<path d="M47.1316 42.9399L41.2044 37.0126C41.9626 35.6571 42.4198 34.1542 42.545 32.6061C42.6702 31.0579 42.4603 29.501 41.9296 28.0413C41.399 26.5816 40.56 25.2534 39.4699 24.1471C38.3798 23.0408 37.0641 22.1823 35.6124 21.6302V0.774194C35.6124 0.568865 35.5308 0.371945 35.3856 0.226756C35.2404 0.0815665 35.0435 0 34.8382 0H0.773824C0.568496 0 0.371578 0.0815665 0.226389 0.226756C0.0812 0.371945 -0.000366211 0.568865 -0.000366211 0.774194V47.2258C-0.000366211 47.4311 0.0812 47.6281 0.226389 47.7732C0.371578 47.9184 0.568496 48 0.773824 48H34.8382C35.0435 48 35.2404 47.9184 35.3856 47.7732C35.5308 47.6281 35.6124 47.4311 35.6124 47.2258V41.8537C36.0942 41.6711 36.5623 41.4541 37.0129 41.2041L42.9401 47.1314C43.4959 47.6872 44.2498 47.9994 45.0358 47.9994C45.8219 47.9994 46.5757 47.6872 47.1316 47.1314C47.6874 46.5755 47.9996 45.8217 47.9996 45.0356C47.9996 44.2496 47.6874 43.4957 47.1316 42.9399ZM41.0317 31.7419C41.0317 33.5794 40.4868 35.3756 39.466 36.9034C38.4452 38.4311 36.9942 39.6219 35.2967 40.3251C33.5991 41.0282 31.7311 41.2122 29.929 40.8537C28.1268 40.4953 26.4715 39.6105 25.1722 38.3112C23.8729 37.0119 22.9881 35.3565 22.6297 33.5544C22.2712 31.7522 22.4552 29.8843 23.1583 28.1867C23.8615 26.4891 25.0522 25.0381 26.58 24.0173C28.1078 22.9965 29.904 22.4516 31.7414 22.4516C34.2045 22.4543 36.566 23.4339 38.3077 25.1756C40.0494 26.9173 41.029 29.2788 41.0317 31.7419ZM6.19315 30.9677V17.0323H29.4189V21.1603C28.3302 21.4005 27.2855 21.8085 26.3221 22.3695V21.6774H9.28992V23.2258H25.0586C24.4717 23.6858 23.9334 24.2046 23.4522 24.7742H9.28992V26.3226H22.3737C22.0861 26.8181 21.8386 27.3359 21.6336 27.871H9.28992V29.4194H21.1598C21.0497 29.9295 20.977 30.447 20.9423 30.9677H6.19315ZM34.064 46.4516H1.54801V1.54839H34.064V21.1603C33.3013 20.9911 32.5226 20.905 31.7414 20.9032C31.4798 20.9032 31.2243 20.9241 30.9672 20.9427V16.2581C30.9672 16.0527 30.8857 15.8558 30.7405 15.7106C30.5953 15.5654 30.3984 15.4839 30.193 15.4839H5.41896C5.21364 15.4839 5.01672 15.5654 4.87153 15.7106C4.72634 15.8558 4.64477 16.0527 4.64477 16.2581V31.7419C4.64477 31.9473 4.72634 32.1442 4.87153 32.2894C5.01672 32.4346 5.21364 32.5161 5.41896 32.5161H20.9423C21.0168 33.5767 21.2484 34.6204 21.6297 35.6129H4.64477V37.1613H22.3691C23.5131 39.1565 25.265 40.7336 27.3691 41.6624C29.4731 42.5911 31.8189 42.8228 34.064 42.3236V46.4516ZM45.0358 46.4516C44.6605 46.4506 44.3007 46.3015 44.0348 46.0366L38.3282 40.3301C39.0794 39.7524 39.7521 39.0794 40.3295 38.328L46.0368 44.0346C46.2348 44.2326 46.3696 44.4849 46.4242 44.7595C46.4788 45.0341 46.4507 45.3187 46.3436 45.5774C46.2365 45.8361 46.055 46.0572 45.8223 46.2128C45.5895 46.3684 45.3158 46.4515 45.0358 46.4516Z" fill="#59B5FF"/>
<path d="M10.064 13.9356H11.6124C12.2283 13.9356 12.8191 13.6909 13.2547 13.2553C13.6902 12.8198 13.9349 12.229 13.9349 11.613V4.64526H12.3866V11.613C12.3866 11.8183 12.305 12.0153 12.1598 12.1604C12.0146 12.3056 11.8177 12.3872 11.6124 12.3872H10.064C9.85866 12.3872 9.66174 12.3056 9.51655 12.1604C9.37136 12.0153 9.28979 11.8183 9.28979 11.613V10.0646H7.74141V11.613C7.74141 12.229 7.98611 12.8198 8.42168 13.2553C8.85724 13.6909 9.448 13.9356 10.064 13.9356ZM17.0317 13.9356H18.5801C19.1961 13.9356 19.7868 13.6909 20.2224 13.2553C20.6579 12.8198 20.9026 12.229 20.9026 11.613V6.96784C20.9026 6.35186 20.6579 5.7611 20.2224 5.32553C19.7868 4.88996 19.1961 4.64526 18.5801 4.64526H17.0317C16.4157 4.64526 15.825 4.88996 15.3894 5.32553C14.9538 5.7611 14.7091 6.35186 14.7091 6.96784V11.613C14.7091 12.229 14.9538 12.8198 15.3894 13.2553C15.825 13.6909 16.4157 13.9356 17.0317 13.9356ZM16.2575 6.96784C16.2575 6.76252 16.3391 6.5656 16.4843 6.42041C16.6294 6.27522 16.8264 6.19365 17.0317 6.19365H18.5801C18.7854 6.19365 18.9823 6.27522 19.1275 6.42041C19.2727 6.5656 19.3543 6.76252 19.3543 6.96784V11.613C19.3543 11.8183 19.2727 12.0153 19.1275 12.1604C18.9823 12.3056 18.7854 12.3872 18.5801 12.3872H17.0317C16.8264 12.3872 16.6294 12.3056 16.4843 12.1604C16.3391 12.0153 16.2575 11.8183 16.2575 11.613V6.96784ZM22.451 13.9356H25.1607C25.6988 13.9352 26.2246 13.7746 26.6711 13.4743C27.1176 13.1739 27.4646 12.7474 27.6678 12.2492C27.871 11.7509 27.9213 11.2034 27.8121 10.6765C27.703 10.1495 27.4395 9.66703 27.0551 9.29043C27.4395 8.91382 27.703 8.43131 27.8121 7.90437C27.9213 7.37743 27.871 6.82994 27.6678 6.33167C27.4646 5.8334 27.1176 5.40692 26.6711 5.10658C26.2246 4.80624 25.6988 4.64565 25.1607 4.64526H22.451C22.2457 4.64526 22.0488 4.72683 21.9036 4.87202C21.7584 5.01721 21.6768 5.21413 21.6768 5.41946V13.1614C21.6768 13.3667 21.7584 13.5636 21.9036 13.7088C22.0488 13.854 22.2457 13.9356 22.451 13.9356ZM23.2252 6.19365H25.1607C25.4687 6.19365 25.7641 6.316 25.9818 6.53378C26.1996 6.75157 26.322 7.04695 26.322 7.35494C26.322 7.66293 26.1996 7.95831 25.9818 8.1761C25.7641 8.39388 25.4687 8.51623 25.1607 8.51623H23.2252V6.19365ZM23.2252 10.0646H25.1607C25.4687 10.0646 25.7641 10.187 25.9818 10.4048C26.1996 10.6225 26.322 10.9179 26.322 11.2259C26.322 11.5339 26.1996 11.8293 25.9818 12.0471C25.7641 12.2648 25.4687 12.3872 25.1607 12.3872H23.2252V10.0646ZM10.8382 18.5807H26.322V20.1291H10.8382V18.5807ZM4.64465 38.7098H15.4833V40.2582H4.64465V38.7098ZM17.0317 38.7098H21.6768V40.2582H17.0317V38.7098Z" fill="#59B5FF"/>
</svg>
