<svg width="48" height="48" viewBox="0 0 48 48" fill="none" xmlns="http://www.w3.org/2000/svg">
<path d="M30.6287 47.9999C30.5934 47.9999 30.5583 47.9977 30.5231 47.9932L30.0774 47.9357H17.3708C17.1568 47.9357 16.9517 47.8528 16.8013 47.7051C16.6509 47.5573 16.5677 47.3573 16.5708 47.1498L16.6372 42.8633C16.6372 39.2082 20.07 37.5105 22.1485 37.0704C22.9399 36.8036 25.0919 36.768 25.931 37.0732C28.0102 37.5166 31.4294 39.2165 31.4294 42.8748V47.2257C31.4296 47.3361 31.4052 47.4451 31.358 47.5456C31.3108 47.646 31.2419 47.7355 31.1559 47.8079C31.0102 47.9318 30.8227 48.0001 30.6287 47.9999ZM18.1829 46.3873H29.8294V42.8747C29.8294 39.4808 25.7036 38.6083 25.5278 38.5728C25.4531 38.5576 25.3809 38.5323 25.3134 38.4976C24.9567 38.3683 23.1087 38.3773 22.6997 38.5221C22.6637 38.5346 22.5767 38.5648 22.5392 38.5716C22.363 38.6075 18.2372 39.48 18.2372 42.8739L18.1829 46.3873ZM23.9997 35.6453C21.7309 35.6453 19.8852 33.8531 19.8852 31.6489C19.8852 29.445 21.731 27.6516 23.9997 27.6516C26.2684 27.6516 28.1142 29.445 28.1142 31.6489C28.1142 33.8531 26.2685 35.6453 23.9997 35.6453ZM23.9997 29.2C22.6142 29.2 21.4852 30.299 21.4852 31.6489C21.4852 32.9984 22.6134 34.097 23.9997 34.097C25.386 34.097 26.5142 32.9984 26.5142 31.6489C26.5142 30.2989 25.3852 29.2 23.9997 29.2ZM47.1997 47.9999C47.1642 47.9999 47.1287 47.9976 47.0934 47.9932L46.6494 47.9357H33.943C33.837 47.9358 33.732 47.9154 33.6343 47.8758C33.5365 47.8362 33.4478 47.7782 33.3734 47.7051C33.2989 47.6319 33.2402 47.5451 33.2007 47.4498C33.1611 47.3545 33.1415 47.2525 33.143 47.1498L33.2094 42.8633C33.2094 39.2082 36.6422 37.5105 38.7203 37.0704C39.5117 36.8029 41.6637 36.7673 42.5019 37.0739C44.5805 37.5166 47.9996 39.2157 47.9996 42.8747V47.2257C47.9997 47.3361 47.9753 47.4453 47.9282 47.5458C47.881 47.6464 47.8122 47.736 47.7262 47.8086C47.5806 47.9321 47.3934 48.0001 47.1997 47.9999ZM34.754 46.3873H46.3997V42.8747C46.3997 39.4808 42.2743 38.6083 42.0981 38.5728C42.023 38.5576 41.9505 38.532 41.8829 38.4968C41.5279 38.3691 39.6798 38.3781 39.2708 38.5214C39.2348 38.5345 39.1478 38.5648 39.1102 38.5717C38.9341 38.6075 34.8087 39.4793 34.8087 42.8739L34.754 46.3873ZM40.5707 35.6453C38.302 35.6453 36.4567 33.8531 36.4567 31.6489C36.4567 29.445 38.302 27.6516 40.5707 27.6516C42.8399 27.6516 44.686 29.445 44.686 31.6489C44.686 33.8531 42.84 35.6453 40.5708 35.6453H40.5707ZM40.5707 29.2C39.1852 29.2 38.0567 30.299 38.0567 31.6489C38.0567 32.9984 39.1845 34.097 40.5707 34.097C41.9575 34.097 43.086 32.9984 43.086 31.6489C43.0852 30.2989 41.9575 29.2 40.5708 29.2H40.5707ZM14.0567 47.9999C14.0216 47.9999 13.986 47.9977 13.9501 47.9932L13.5063 47.9357H0.799714C0.693719 47.9358 0.588769 47.9154 0.49099 47.8758C0.39321 47.8362 0.30456 47.7782 0.230214 47.7051C0.155705 47.6319 0.0969606 47.5451 0.0573914 47.4498C0.0178221 47.3545 -0.00178334 47.2525 -0.000286532 47.1498L0.0661135 42.8633C0.0661135 39.2082 3.49892 37.5105 5.57742 37.0704C6.36772 36.8029 8.52042 36.7673 9.35912 37.0739C11.4384 37.5166 14.8575 39.2165 14.8575 42.8747V47.2257C14.8576 47.3362 14.8332 47.4454 14.786 47.5459C14.7387 47.6465 14.6698 47.736 14.5837 47.8086C14.4378 47.932 14.2505 48 14.0567 47.9999ZM1.61181 46.3873H13.2575V42.8747C13.2575 39.48 9.13172 38.6083 8.95592 38.5728C8.88075 38.5577 8.80826 38.5321 8.74072 38.4968C8.38522 38.3691 6.53722 38.3781 6.12872 38.5214C6.09272 38.5345 6.00562 38.5648 5.96772 38.5717C5.79192 38.6075 1.66611 39.4793 1.66611 42.8739L1.61181 46.3873ZM7.42872 35.6453C5.15992 35.6453 3.31342 33.8531 3.31342 31.6489C3.31342 29.445 5.15992 27.6516 7.42862 27.6516C9.69732 27.6516 11.5431 29.445 11.5431 31.6489C11.5431 33.8531 9.69752 35.6453 7.42872 35.6453ZM7.42872 29.2C6.04232 29.2 4.91342 30.299 4.91342 31.6489C4.91342 32.9984 6.04152 34.097 7.42862 34.097C8.81422 34.097 9.94312 32.9984 9.94312 31.6489C9.94312 30.2989 8.81502 29.2 7.42872 29.2ZM29.3013 9.53025H30.9013V17.4185H29.3013V9.53025ZM32.5294 12.3632H34.1294V17.4185H32.5294V12.3632ZM35.6399 10.0282H37.2399V17.4185H35.6399V10.0282ZM39.9302 4.05273H41.5302V17.4185H39.9302V4.05273Z" fill="#59B5FF"/>
<path d="M44.8637 20.887H21.6182C21.176 20.887 20.8182 20.5411 20.8182 20.1128C20.8182 19.6845 21.176 19.3386 21.6182 19.3386H44.0637V1.54839H17.1927V15.5931C17.1927 16.0211 16.8349 16.3673 16.3927 16.3673C15.9501 16.3673 15.5927 16.0211 15.5927 15.5931V0.774194C15.5927 0.345871 15.9501 0 16.3927 0H44.8637C45.3063 0 45.6637 0.345871 45.6637 0.774194V20.1128C45.6637 20.5399 45.3063 20.887 44.8637 20.887ZM9.36772 9.98177C6.89342 9.98177 4.88062 8.02626 4.88062 5.62161C4.88062 3.21852 6.89422 1.26194 9.36762 1.26194C11.8415 1.26194 13.8552 3.21735 13.8552 5.62161C13.8552 8.02548 11.8422 9.98177 9.36772 9.98177ZM9.36772 2.81023C7.77592 2.81023 6.48062 4.07129 6.48062 5.62152C6.48062 7.17223 7.77592 8.43339 9.36762 8.43339C10.9599 8.43339 12.2552 7.17223 12.2552 5.62161C12.2552 4.07129 10.9599 2.81032 9.36772 2.81032V2.81023Z" fill="#59B5FF"/>
<path d="M13.8026 26.4093H5.1916C5.08651 26.4094 4.98242 26.3895 4.8853 26.3506C4.78818 26.3117 4.69994 26.2547 4.62562 26.1828C4.55131 26.1109 4.49239 26.0255 4.45223 25.9315C4.41207 25.8375 4.39147 25.7368 4.3916 25.6351V24.4559C4.01583 24.5709 3.61582 24.5904 3.23 24.5126C2.1757 24.3066 1.4093 23.3736 1.4093 22.2966V18.5466C1.4093 16.4074 2.0683 14.3448 3.3163 12.5829C3.7515 11.9682 4.3284 11.5021 4.9827 11.2359C5.65188 10.9629 6.37096 10.8228 7.0972 10.824H11.878C11.9964 10.824 12.1147 10.8285 12.2323 10.8379C13.5604 10.9415 14.8077 11.701 15.5683 12.8694L17.3659 15.6354L20.9186 17.5093C22.1406 18.1542 22.7194 19.5159 22.2956 20.7467C22.0506 21.4559 21.5323 22.018 20.8346 22.3291C20.1515 22.6357 19.3558 22.6539 18.6558 22.3798C18.6268 22.3689 18.5988 22.3556 18.5725 22.3408L14.6202 20.2488L14.6034 25.6384C14.6022 25.8432 14.5173 26.0392 14.3673 26.1836C14.2172 26.328 14.0142 26.4092 13.8026 26.4093ZM5.9916 24.8609H13.0054L13.0229 18.9414L13.0269 17.7337C13.0275 17.5287 13.112 17.3324 13.262 17.1877C13.412 17.043 13.6151 16.9619 13.8269 16.962H13.8292C14.041 16.9625 14.2439 17.0444 14.3934 17.1895C14.5429 17.3346 14.6269 17.5312 14.6268 17.7362V17.7385L14.6245 18.4855L19.2925 20.9566C19.5795 21.059 19.8866 21.0459 20.1635 20.9211C20.4565 20.791 20.6749 20.554 20.778 20.2553C20.9538 19.745 20.685 19.1482 20.153 18.8673L16.417 16.897C16.2969 16.8334 16.1957 16.7412 16.123 16.629L14.2132 13.6925C13.7202 12.9345 12.9307 12.4447 12.1026 12.3804C12.0277 12.374 11.9524 12.3709 11.8772 12.3709H7.0965C6.58348 12.3705 6.07556 12.4694 5.6027 12.662C5.2317 12.812 4.8973 13.0876 4.6363 13.4562C3.5719 14.9608 3.0093 16.7204 3.0093 18.5452V22.2967C3.0093 22.6351 3.2414 22.9356 3.5484 22.9954C3.8383 23.0516 4.0414 22.9356 4.1348 22.861C4.21535 22.7973 4.28021 22.7171 4.32467 22.626C4.36912 22.535 4.39206 22.4356 4.3918 22.3349V17.1847C4.3918 16.7567 4.7492 16.4105 5.1918 16.4105C5.634 16.4105 5.9918 16.7567 5.9918 17.1847L5.9916 24.8609Z" fill="#59B5FF"/>
<path d="M19.6354 18.0998L25.037 10.342L26.3632 11.207L20.9616 18.9648L19.6354 18.0998Z" fill="#59B5FF"/>
</svg>
