<svg width="90" height="90" viewBox="0 0 90 90" fill="none" xmlns="http://www.w3.org/2000/svg">
<mask id="mask0_506_901" style="mask-type:luminance" maskUnits="userSpaceOnUse" x="-1" y="0" width="91" height="90">
<path d="M88.4994 88.5V1.50027H1.49963V88.5H88.4994Z" fill="white" stroke="white" stroke-width="3"/>
</mask>
<g mask="url(#mask0_506_901)">
<path d="M69.4993 9.35921C52.6532 -2.24935 29.4069 -0.561147 14.4221 14.4236C-0.919864 29.7654 -2.32224 53.7663 10.2115 70.6931L6.88252 83.1171L19.3067 79.7882C36.2335 92.3221 60.2343 90.9195 75.576 75.5777H75.5762C90.5612 60.5926 92.2492 37.3458 80.6399 20.4995" stroke="#30A2FF" stroke-width="3" stroke-miterlimit="10" stroke-linecap="round" stroke-linejoin="round"/>
<path d="M33.2666 33.6892C30.7016 33.7148 28.8243 31.2219 29.6204 28.7835C30.4207 26.3324 31.8206 24.1019 33.7479 22.2611C36.9114 19.24 41.0667 17.6873 45.4463 17.8888C49.272 18.0647 52.9584 19.7411 55.8263 22.609C58.6942 25.4769 60.3704 29.1633 60.5466 32.989C60.8341 39.241 57.411 45.0973 51.8254 47.9086C49.761 48.9474 48.4785 50.9955 48.4785 53.2532C48.4785 55.335 46.7908 57.0225 44.7092 57.0225H44.6945C42.6129 57.0225 40.9252 55.335 40.9252 53.2532C40.9252 48.1244 43.8008 43.4912 48.4296 41.1616C51.3576 39.688 53.1522 36.6164 53.0012 33.3362C52.8161 29.3117 49.1234 25.6191 45.0991 25.4338C42.7987 25.3274 40.6213 26.1413 38.9647 27.7237C37.9772 28.6667 37.2538 29.8051 36.8304 31.0558C36.3069 32.6016 34.8986 33.6728 33.2666 33.6892Z" stroke="#30A2FF" stroke-width="3" stroke-miterlimit="10" stroke-linecap="round" stroke-linejoin="round"/>
<path d="M48.4786 68.3525C48.4786 70.4383 46.7878 72.1292 44.7019 72.1292C42.6161 72.1292 40.9253 70.4383 40.9253 68.3525C40.9253 66.2667 42.6161 64.5759 44.7019 64.5759C46.7878 64.5759 48.4786 66.2667 48.4786 68.3525Z" stroke="#30A2FF" stroke-width="3" stroke-miterlimit="10" stroke-linecap="round" stroke-linejoin="round"/>
</g>
</svg>
