<svg width="48" height="48" viewBox="0 0 48 48" fill="none" xmlns="http://www.w3.org/2000/svg">
<path d="M18.1942 29.6369C17.6579 29.6361 17.1438 29.4141 16.7646 29.0197C16.3853 28.6252 16.1719 28.0904 16.1711 27.5326V26.0767C16.1711 23.7332 17.406 21.5915 19.3169 20.6203C19.7499 20.4026 20.1149 20.062 20.3697 19.6377C20.6246 19.2134 20.7588 18.7229 20.7569 18.2226C20.7569 17.5378 20.4836 16.8756 19.9864 16.3584C19.4892 15.8418 18.8531 15.5574 18.1942 15.5574C17.515 15.5584 16.8638 15.8395 16.3835 16.3391C15.9032 16.8387 15.6329 17.5161 15.632 18.2226C15.632 19.3831 14.7245 20.327 13.6089 20.327C12.4933 20.327 11.5853 19.3831 11.5853 18.2226C11.5853 14.4322 14.5502 11.3481 18.1942 11.3481C19.9333 11.3481 21.5861 12.0708 22.8477 13.3826C24.1094 14.6945 24.8036 16.4141 24.8031 18.2231C24.8031 20.8715 23.3813 23.2392 21.0929 24.4017C20.5614 24.6719 20.2173 25.3294 20.2173 26.0762V27.532C20.2168 28.09 20.0035 28.625 19.6242 29.0196C19.2449 29.4142 18.7306 29.6362 18.1942 29.6369ZM18.1942 14.4716C19.1315 14.4716 20.0298 14.8695 20.7241 15.5911C21.4183 16.3132 21.8003 17.2477 21.8003 18.2226C21.803 18.9263 21.6143 19.6164 21.256 20.2133C20.8976 20.8102 20.3843 21.2894 19.7752 21.5957C18.2195 22.3862 17.2145 24.1447 17.2145 26.0762V27.532C17.2145 28.0944 17.6541 28.5516 18.1947 28.5516C18.7343 28.5516 19.1739 28.0944 19.1739 27.532V26.0762C19.1739 24.9178 19.7474 23.8777 20.6352 23.4268C21.5748 22.9545 22.3669 22.2153 22.9198 21.2946C23.4727 20.3738 23.7639 19.3092 23.7597 18.2237C23.7597 16.7037 23.1741 15.2573 22.11 14.1505C21.0454 13.0431 19.6549 12.434 18.1942 12.434C15.1257 12.434 12.6292 15.0308 12.6292 18.2226C12.6292 18.7844 13.0688 19.2417 13.6089 19.2417C14.149 19.2417 14.5881 18.7844 14.5881 18.2226C14.5881 16.155 16.206 14.4721 18.1942 14.4716ZM18.1942 35.836C17.6579 35.8353 17.1438 35.6135 16.7646 35.2191C16.3853 34.8247 16.1719 34.29 16.1711 33.7322V33.4252C16.1718 32.8673 16.3852 32.3325 16.7644 31.938C17.1437 31.5435 17.6579 31.3216 18.1942 31.3209C18.7306 31.3214 19.2449 31.5433 19.6242 31.9378C20.0034 32.3324 20.2168 32.8673 20.2173 33.4252V33.7322C20.2168 34.2901 20.0034 34.8251 19.6242 35.2196C19.2449 35.6141 18.7306 35.836 18.1942 35.8366V35.836ZM18.1942 32.4062C17.6541 32.4062 17.2145 32.8634 17.2145 33.4252V33.7322C17.2145 34.294 17.6541 34.7507 18.1947 34.7507C18.7343 34.7507 19.1739 34.2935 19.1739 33.7322V33.4252C19.1739 32.8629 18.7343 32.4062 18.1942 32.4062Z" fill="#59B5FF"/>
<path d="M18.1928 42.5176C8.1612 42.5176 -0.000366211 34.028 -0.000366211 23.5928C-0.000366211 13.1577 8.1612 4.66864 18.1928 4.66864C20.7037 4.67182 23.187 5.21382 25.4874 6.26075C27.7878 7.30768 29.8558 8.83703 31.5621 10.7532C31.6086 10.8055 31.6448 10.8668 31.6685 10.9337C31.6922 11.0005 31.7031 11.0716 31.7004 11.1428C31.6977 11.214 31.6816 11.2839 31.6529 11.3487C31.6242 11.4134 31.5836 11.4716 31.5333 11.52C31.483 11.5684 31.4241 11.606 31.3598 11.6306C31.2955 11.6553 31.2272 11.6666 31.1588 11.6638C31.0903 11.661 31.023 11.6442 30.9608 11.6144C30.8986 11.5846 30.8426 11.5423 30.7961 11.49C29.1876 9.68359 27.2381 8.24179 25.0695 7.25481C22.9009 6.26783 20.5599 5.75689 18.1928 5.75394C8.7367 5.75394 1.04301 13.7568 1.04301 23.5928C1.04301 33.4289 8.7367 41.4318 18.1928 41.4318C21.5902 41.4318 24.8694 40.4016 27.6751 38.4518C27.7901 38.3718 27.931 38.3426 28.0668 38.3706C28.2025 38.3986 28.322 38.4816 28.3989 38.6013C28.4758 38.721 28.5039 38.8675 28.4769 39.0087C28.45 39.1499 28.3702 39.2742 28.2551 39.3542C25.2766 41.4233 21.7968 42.5176 18.1928 42.5176ZM36.6582 12.3514C33.4937 12.3514 31.2883 8.77913 31.2883 5.57262C31.2883 2.34352 33.5468 0 36.6582 0C39.7702 0 42.0282 2.34404 42.0282 5.57262C42.0282 8.7786 39.8232 12.3514 36.6582 12.3514ZM36.6582 1.0853C34.1112 1.0853 32.3316 2.93058 32.3316 5.57262C32.3316 8.5526 34.3941 11.2661 36.6582 11.2661C38.9228 11.2661 40.9848 8.55208 40.9848 5.57262C40.9848 2.93058 39.2058 1.0853 36.6582 1.0853Z" fill="#59B5FF"/>
<path d="M40.0839 47.9998C39.3401 48 38.6227 47.7124 38.0714 47.1931C37.7628 46.9011 37.5161 46.5454 37.3472 46.1487C37.1782 45.7519 37.0907 45.3229 37.0902 44.889V35.4891C37.0901 35.3268 37.0436 35.1681 36.9567 35.0333C36.8698 34.8984 36.7464 34.7934 36.602 34.7316C36.4577 34.6698 36.299 34.6539 36.146 34.6861C35.993 34.7182 35.8526 34.7969 35.7426 34.9121C35.591 35.0666 35.5097 35.2705 35.5097 35.4891V44.7749C35.5097 46.4284 34.3233 47.8385 32.8085 47.9856C32.3937 48.0273 31.975 47.9783 31.5793 47.8418C31.1837 47.7053 30.8199 47.4843 30.5111 47.1931C30.2027 46.901 29.9562 46.5453 29.7874 46.1485C29.6186 45.7518 29.5313 45.3228 29.5309 44.889V27.3113C29.5368 27.1715 29.5943 27.0396 29.6915 26.9429C29.7886 26.8462 29.9179 26.7922 30.0523 26.7922C30.1868 26.7922 30.316 26.8462 30.4132 26.9429C30.5103 27.0396 30.5678 27.1715 30.5738 27.3113V44.8895C30.5738 45.4592 30.8072 46.0063 31.2129 46.39C31.4133 46.5811 31.6504 46.7259 31.9086 46.8147C32.1667 46.9035 32.4401 46.9343 32.7105 46.9051C33.6958 46.8099 34.4663 45.8744 34.4663 44.7754V35.4891C34.4663 34.9757 34.6588 34.4969 35.009 34.1405C35.1787 33.9637 35.3803 33.8235 35.6023 33.7281C35.8243 33.6327 36.0623 33.5839 36.3025 33.5845C36.788 33.585 37.2535 33.7859 37.5968 34.1429C37.9402 34.5 38.1334 34.9841 38.1341 35.4891V44.889C38.1341 45.4587 38.367 46.0058 38.7732 46.3895C38.9735 46.5806 39.2106 46.7253 39.4686 46.8141C39.7267 46.9029 40 46.9337 40.2703 46.9045C41.2556 46.8094 42.0261 45.8739 42.0261 44.7749V28.0486C42.0303 27.9076 42.0872 27.7739 42.1845 27.6757C42.2819 27.5775 42.4122 27.5226 42.5478 27.5226C42.6834 27.5226 42.8137 27.5775 42.9111 27.6757C43.0085 27.7739 43.0653 27.9076 43.0695 28.0486V44.7749C43.0695 46.4284 41.8831 47.8385 40.3689 47.9856C40.2741 47.9951 40.179 47.9998 40.0839 47.9998Z" fill="#59B5FF"/>
<path d="M43.9779 28.5916H33.9282C33.8506 28.5915 33.7741 28.5734 33.7041 28.5387C33.6341 28.504 33.5725 28.4535 33.5236 28.3909C33.4747 28.3283 33.4399 28.2551 33.4216 28.1767C33.4033 28.0984 33.402 28.0167 33.4179 27.9378L33.5644 27.2104C33.5945 27.0713 33.6759 26.95 33.7912 26.8729C33.9065 26.7957 34.0463 26.7688 34.1805 26.798C34.3147 26.8272 34.4324 26.9102 34.5083 27.0289C34.5842 27.1477 34.6121 27.2927 34.586 27.4327L34.5709 27.5063H43.553L43.9992 25.2684C44.0131 25.1986 44.0401 25.1324 44.0786 25.0735C44.1172 25.0145 44.1665 24.9641 44.2238 24.925C44.2811 24.8859 44.3452 24.8589 44.4125 24.8456C44.4798 24.8323 44.549 24.8329 44.6161 24.8474C44.6832 24.8619 44.7468 24.89 44.8035 24.9301C44.8601 24.9702 44.9086 25.0215 44.9462 25.0811C44.9838 25.1407 45.0097 25.2074 45.0225 25.2774C45.0353 25.3474 45.0347 25.4194 45.0208 25.4891L44.4883 28.159C44.4377 28.4108 44.225 28.5916 43.9779 28.5916ZM35.0509 22.9911C34.9733 22.9911 34.8967 22.9732 34.8266 22.9386C34.7566 22.904 34.6948 22.8535 34.6458 22.791C34.5969 22.7284 34.5619 22.6553 34.5435 22.5769C34.5251 22.4985 34.5238 22.4168 34.5396 22.3378L36.5955 12.0692C36.646 11.8175 36.8592 11.6372 37.1058 11.6372H47.155C47.2325 11.6373 47.309 11.6554 47.379 11.6901C47.4489 11.7247 47.5105 11.7752 47.5594 11.8378C47.6083 11.9003 47.6431 11.9734 47.6615 12.0517C47.6798 12.13 47.6811 12.2116 47.6654 12.2905L45.9283 20.9571C45.8976 21.0956 45.816 21.216 45.701 21.2926C45.586 21.3692 45.4467 21.3959 45.313 21.3668C45.1793 21.3378 45.0619 21.2554 44.9859 21.1374C44.9099 21.0193 44.8815 20.875 44.9066 20.7354L46.5134 12.7225H37.5302L35.5612 22.5586C35.5102 22.8145 35.2934 22.9906 35.0509 22.9906V22.9911Z" fill="#59B5FF"/>
<path d="M35.1935 27.8642H30.2035C27.7378 27.8642 25.7314 25.7776 25.7314 23.2123V19.26C25.7314 15.6436 28.5598 12.7009 32.0371 12.7009H36.6583C36.7967 12.7009 36.9294 12.7581 37.0273 12.8599C37.1252 12.9618 37.1802 13.0999 37.1802 13.2438C37.1802 13.3878 37.1252 13.5259 37.0273 13.6277C36.9294 13.7296 36.7967 13.7868 36.6583 13.7868H32.0371C29.1353 13.7868 26.7747 16.2422 26.7747 19.26V23.2123C26.7758 24.1579 27.1374 25.0644 27.7802 25.733C28.423 26.4016 29.2944 26.7777 30.2035 26.7789H35.1935C36.1985 26.7789 37.0155 25.9285 37.0155 24.8836C37.0155 23.8388 36.1985 22.9879 35.1935 22.9879H30.8462C30.5582 22.9879 30.3242 22.7451 30.3242 22.4455V19.3189C30.3285 19.1779 30.3853 19.0442 30.4826 18.946C30.58 18.8478 30.7103 18.7929 30.8459 18.7929C30.9815 18.7929 31.1118 18.8478 31.2092 18.946C31.3066 19.0442 31.3634 19.1779 31.3676 19.3189V21.9026H35.1935C35.9532 21.9036 36.6816 22.218 37.2187 22.7768C37.7559 23.3357 38.058 24.0934 38.0588 24.8836C38.0579 25.6737 37.7558 26.4312 37.2187 26.9899C36.6817 27.5487 35.9531 27.863 35.1935 27.8642ZM45.9607 26.2517H45.6899C44.9304 26.2506 44.2023 25.9363 43.6653 25.3777C43.1283 24.819 42.8261 24.0617 42.825 23.2717C42.8257 22.4815 43.1277 21.7237 43.6648 21.1648C44.2019 20.6058 44.9301 20.2913 45.6899 20.2902H46.2325C46.483 20.2904 46.7305 20.3459 46.9587 20.453C47.187 20.5602 47.3908 20.7166 47.5566 20.9118C47.7224 21.107 47.8464 21.3366 47.9205 21.5854C47.9946 21.8343 48.017 22.0966 47.9863 22.3551L47.715 24.6387C47.6617 25.0838 47.4541 25.4933 47.131 25.7904C46.808 26.0875 46.3919 26.2512 45.9607 26.2517ZM45.6899 21.376C44.6854 21.376 43.8679 22.2264 43.8679 23.2712C43.8679 24.316 44.6854 25.1664 45.6899 25.1664H45.9607C46.326 25.1664 46.6347 24.8826 46.6792 24.5058L46.951 22.2216C46.9643 22.1157 46.9554 22.008 46.925 21.906C46.8945 21.8039 46.8433 21.7099 46.7747 21.6304C46.7072 21.55 46.6238 21.4856 46.5303 21.4417C46.4367 21.3978 46.3352 21.3754 46.2325 21.376H45.6899ZM45.1179 47.9688H23.151C23.0154 47.9644 22.8868 47.9053 22.7924 47.804C22.698 47.7027 22.6453 47.5672 22.6453 47.4262C22.6453 47.2851 22.698 47.1496 22.7924 47.0483C22.8868 46.947 23.0154 46.8879 23.151 46.8835H45.1174C45.253 46.8879 45.3816 46.947 45.4759 47.0483C45.5703 47.1496 45.6231 47.2851 45.6231 47.4262C45.6231 47.5672 45.5703 47.7027 45.4759 47.804C45.3816 47.9053 45.2535 47.9644 45.1179 47.9688ZM20.0183 47.9688H18.1943C18.0588 47.9644 17.9302 47.9053 17.8358 47.804C17.7414 47.7027 17.6886 47.5672 17.6886 47.4262C17.6886 47.2851 17.7414 47.1496 17.8358 47.0483C17.9302 46.947 18.0588 46.8879 18.1943 46.8835H20.0183C20.1539 46.8879 20.2824 46.947 20.3768 47.0483C20.4712 47.1496 20.524 47.2851 20.524 47.4262C20.524 47.5672 20.4712 47.7027 20.3768 47.804C20.2824 47.9053 20.1539 47.9644 20.0183 47.9688Z" fill="#59B5FF"/>
</svg>
