<svg width="96" height="96" viewBox="0 0 96 96" fill="none" xmlns="http://www.w3.org/2000/svg">
<path d="M13.4996 87H82.4996C82.8975 87 83.279 86.842 83.5603 86.5607C83.8416 86.2794 83.9996 85.8978 83.9996 85.5V81C83.9963 77.6536 83.3321 74.3409 82.045 71.2519C80.758 68.163 78.8734 65.3587 76.4996 63V60C76.4996 57.2152 75.3934 54.5445 73.4243 52.5754C71.4551 50.6062 68.7844 49.5 65.9996 49.5H60.1796C62.8728 46.5553 64.4076 42.7344 64.4996 38.745C65.1719 38.5077 65.7781 38.1141 66.2684 37.5966C66.7587 37.079 67.119 36.4524 67.3197 35.7684C67.5204 35.0843 67.5557 34.3624 67.4227 33.662C67.2896 32.9616 66.9921 32.3029 66.5546 31.74L67.1396 28.5C67.5785 26.1264 67.4913 23.6855 66.8841 21.3493C66.277 19.0131 65.1646 16.8386 63.6255 14.9791C62.0865 13.1196 60.1581 11.6205 57.9766 10.5874C55.7951 9.55429 53.4134 9.01243 50.9996 9H34.4996C34.1018 9 33.7203 9.15804 33.439 9.43934C33.1577 9.72064 32.9996 10.1022 32.9996 10.5C32.9996 11.6935 32.5255 12.8381 31.6816 13.682C30.8377 14.5259 29.6931 15 28.4996 15H28.3046C28.0721 14.9729 27.8364 15.0006 27.6165 15.0809C27.3966 15.1612 27.1985 15.2919 27.0382 15.4625C26.8778 15.633 26.7596 15.8388 26.693 16.0632C26.6264 16.2877 26.6133 16.5246 26.6546 16.755L29.4446 31.755C29.0103 32.3177 28.7154 32.9752 28.5841 33.6738C28.4528 34.3724 28.4889 35.0921 28.6894 35.7741C28.8899 36.4561 29.2491 37.0808 29.7375 37.5972C30.226 38.1136 30.8299 38.5069 31.4996 38.745C31.5917 42.7344 33.1265 46.5553 35.8196 49.5H29.9996C27.2149 49.5 24.5441 50.6062 22.575 52.5754C20.6059 54.5445 19.4996 57.2152 19.4996 60V63C17.1258 65.3587 15.2413 68.163 13.9542 71.2519C12.6672 74.3409 12.0029 77.6536 11.9996 81V85.5C11.9996 85.8978 12.1577 86.2794 12.439 86.5607C12.7203 86.842 13.1018 87 13.4996 87ZM32.9996 84H29.9996V59.82C30.9758 59.4533 31.9787 59.1624 32.9996 58.95V84ZM59.9996 84H35.9996V58.5H37.4996H39.1196C39.3801 60.0083 40.021 61.4252 40.9816 62.6168C41.9423 63.8085 43.191 64.7354 44.6096 65.31L43.4996 76.35C43.4771 76.5721 43.5045 76.7965 43.5798 77.0067C43.655 77.2169 43.7763 77.4076 43.9346 77.565L46.9346 80.565C47.0741 80.7056 47.24 80.8172 47.4228 80.8933C47.6056 80.9695 47.8016 81.0087 47.9996 81.0087C48.1977 81.0087 48.3937 80.9695 48.5765 80.8933C48.7593 80.8172 48.9252 80.7056 49.0646 80.565L52.0646 77.565C52.223 77.4076 52.3442 77.2169 52.4195 77.0067C52.4947 76.7965 52.5221 76.5721 52.4996 76.35L51.3896 65.31C52.8083 64.7354 54.057 63.8085 55.0176 62.6168C55.9783 61.4252 56.6191 60.0083 56.8796 58.5H58.4996H59.9996V84ZM47.9996 63C46.4083 63 44.8822 62.3679 43.757 61.2426C42.6318 60.1174 41.9996 58.5913 41.9996 57V53.715C42.4046 53.865 42.8246 54.015 43.2596 54.15C46.3526 55.0703 49.6466 55.0703 52.7396 54.15C53.1746 54.015 53.5946 53.865 53.9996 53.715V57C53.9996 58.5913 53.3675 60.1174 52.2423 61.2426C51.1171 62.3679 49.5909 63 47.9996 63ZM49.4996 75.945L47.9996 77.445L46.4996 75.945L47.5496 66H47.9996H48.4496L49.4996 75.945ZM65.9996 84H62.9996V58.95C64.0205 59.1624 65.0235 59.4533 65.9996 59.82V84ZM80.9996 81V84H68.9996V61.11C72.6199 63.0202 75.6504 65.8818 77.765 69.3866C79.8795 72.8915 80.9979 76.9067 80.9996 81ZM65.9996 52.5C67.9888 52.5 69.8964 53.2902 71.3029 54.6967C72.7095 56.1032 73.4996 58.0109 73.4996 60V60.42C69.1502 57.2262 63.8957 55.5027 58.4996 55.5H56.9996V52.5H65.9996ZM35.8496 12H50.9996C52.9777 12.01 54.9293 12.4546 56.7166 13.3023C58.5038 14.1499 60.0829 15.38 61.3422 16.9055C62.6015 18.4309 63.5101 20.2144 64.0039 22.1299C64.4977 24.0453 64.5645 26.0459 64.1996 27.99L63.9746 29.145C63.1946 26.145 62.5646 25.5 61.4996 25.5C60.8731 25.4945 60.2546 25.3583 59.6838 25.1C59.1129 24.8417 58.6023 24.467 58.1846 24C56.8869 22.5908 55.3129 21.464 53.5606 20.6897C51.8083 19.9155 49.9153 19.5105 47.9996 19.5H47.8196C45.9421 19.4891 44.0847 19.8859 42.3754 20.6628C40.6662 21.4397 39.146 22.5783 37.9196 24C37.4902 24.4803 36.9626 24.8627 36.3726 25.1215C35.7826 25.3803 35.1438 25.5094 34.4996 25.5C33.4346 25.5 32.8046 26.13 32.0246 29.145L29.9096 17.865C31.3694 17.586 32.7134 16.8795 33.771 15.8353C34.8286 14.791 35.5521 13.4561 35.8496 12ZM34.4996 38.34V37.5C34.4996 37.1022 34.3416 36.7206 34.0603 36.4393C33.779 36.158 33.3975 36 32.9996 36C32.6018 36 32.2203 35.842 31.939 35.5607C31.6577 35.2794 31.4996 34.8978 31.4996 34.5C31.4996 34.1022 31.6577 33.7206 31.939 33.4393C32.2203 33.158 32.6018 33 32.9996 33C33.3485 33.0078 33.6891 32.8937 33.9628 32.6774C34.2366 32.4611 34.4264 32.1561 34.4996 31.815C34.7433 30.6807 35.0437 29.5593 35.3996 28.455C37.2746 28.226 38.9968 27.306 40.2296 25.875C41.1767 24.7986 42.3453 23.9397 43.6554 23.3571C44.9655 22.7746 46.386 22.4822 47.8196 22.5H47.9996C49.505 22.5152 50.9911 22.8415 52.3643 23.4585C53.7376 24.0754 54.9685 24.9696 55.9796 26.085C57.1938 27.4165 58.8421 28.2725 60.6296 28.5C60.9913 29.6026 61.2917 30.7243 61.5296 31.86C61.6106 32.1877 61.7998 32.4785 62.0666 32.6854C62.3333 32.8923 62.6621 33.0031 62.9996 33C63.3975 33 63.779 33.158 64.0603 33.4393C64.3416 33.7206 64.4996 34.1022 64.4996 34.5C64.4996 34.8978 64.3416 35.2794 64.0603 35.5607C63.779 35.842 63.3975 36 62.9996 36C62.6018 36 62.2203 36.158 61.939 36.4393C61.6577 36.7206 61.4996 37.1022 61.4996 37.5V38.34C61.4996 41.9204 60.0773 45.3542 57.5456 47.8859C55.0138 50.4177 51.5801 51.84 47.9996 51.84C44.4192 51.84 40.9854 50.4177 38.4537 47.8859C35.922 45.3542 34.4996 41.9204 34.4996 38.34ZM22.4996 60C22.4996 58.0109 23.2898 56.1032 24.6963 54.6967C26.1029 53.2902 28.0105 52.5 29.9996 52.5H38.9996V55.5H37.4996C32.1036 55.5027 26.849 57.2262 22.4996 60.42V60ZM14.9996 81C15.0014 76.9067 16.1198 72.8915 18.2343 69.3866C20.3488 65.8818 23.3794 63.0202 26.9996 61.11V84H14.9996V81Z" fill="#30A2FF"/>
</svg>
