<svg width="102" height="102" viewBox="0 0 102 102" fill="none" xmlns="http://www.w3.org/2000/svg">
<g clip-path="url(#clip0_506_911)">
<path d="M74.3801 92.3029C73.5116 92.3022 72.65 92.149 71.8345 91.8506L60.8288 87.8393C60.0461 87.5538 59.6431 86.6877 59.9286 85.9051C60.2141 85.1224 61.0802 84.7194 61.8629 85.0049L72.8686 89.0162C75.1541 89.849 77.6817 88.6714 78.5143 86.386C78.5147 86.3852 78.5148 86.3845 78.5152 86.3836L98.7149 30.9448C99.5474 28.6591 98.3695 26.1311 96.0839 25.2983L55.8142 10.6258L50.3017 25.7522C50.0162 26.5348 49.1501 26.9379 48.3675 26.6523C47.5848 26.3668 47.1818 25.5007 47.4673 24.7181L52.9783 9.59337L47.1313 7.46172C46.9698 7.42459 46.8038 7.50228 46.7292 7.65026L40.1325 25.7522C39.847 26.5348 38.9809 26.9379 38.1982 26.6523C37.4156 26.3668 37.0125 25.5007 37.2981 24.7181L43.8947 6.61616C44.5249 4.88773 46.4368 3.99729 48.1652 4.62745H48.1654L55.4295 7.27462L55.431 7.27606L97.118 22.4642C100.969 23.8687 102.952 28.1281 101.549 31.9793L81.3495 87.4179C80.2799 90.3461 77.4973 92.2962 74.3801 92.3029Z" fill="#30A2FF"/>
<path d="M80.3066 57.0211C79.7613 57.0206 79.2202 56.9243 78.7083 56.7368L60.8288 50.2226C60.0462 49.937 59.6431 49.0709 59.9287 48.2883C60.2142 47.5056 61.0803 47.1026 61.8629 47.3881L79.7424 53.9024C80.593 54.2119 81.5334 53.7733 81.8431 52.9227L87.2877 37.9806C87.5963 37.1306 87.1588 36.1909 86.3095 35.88L60.6282 26.5226C60.0438 26.3121 59.3908 26.4476 58.9385 26.8732C58.3313 27.443 57.3768 27.4127 56.8071 26.8052C56.2389 26.1998 56.2672 25.2488 56.8703 24.6781C58.1483 23.4626 60.0058 23.0789 61.6611 23.6881L87.3423 33.0455C89.7564 33.9284 91 36.5988 90.1222 39.0147L84.6775 53.9568C84.0068 55.7938 82.2618 57.017 80.3066 57.0211Z" fill="#30A2FF"/>
<path d="M75.4245 40.0122C75.2482 40.0121 75.0732 39.9811 74.9073 39.9208L66.7564 36.951C65.9737 36.6655 65.5707 35.7994 65.8564 35.0168C66.1419 34.2341 67.008 33.8311 67.7907 34.1168L75.9416 37.0866C76.7243 37.3721 77.1273 38.238 76.8418 39.0207C76.6246 39.6162 76.0584 40.0122 75.4245 40.0122Z" fill="#30A2FF"/>
<path d="M75.311 47.2071C75.1348 47.2069 74.9597 47.1759 74.7939 47.1157L62.2147 42.5328C61.4321 42.2473 61.029 41.3812 61.3145 40.5985C61.6001 39.8159 62.4662 39.4128 63.2488 39.6983L75.828 44.2812C76.6107 44.5667 77.0137 45.4327 76.7282 46.2153C76.5112 46.8109 75.9448 47.2071 75.311 47.2071Z" fill="#30A2FF"/>
<path d="M11.0629 97.5752H3.33194C1.49283 97.5736 0.00215731 96.0835 -0.000366211 94.2446V27.0574C0.00215731 25.2183 1.49283 23.7283 3.33194 23.7267H11.0629C11.8955 23.7261 12.5709 24.4008 12.5714 25.2334V25.2352V96.0667C12.572 96.8993 11.8973 97.5747 11.0647 97.5752C11.0642 97.5752 11.0635 97.5752 11.0629 97.5752ZM3.33194 26.7435C3.15836 26.7435 3.01758 26.8838 3.01668 27.0574V94.2444C3.01758 94.418 3.15836 94.5582 3.33194 94.5582H9.55457V26.7435H3.33194Z" fill="#30A2FF"/>
<path d="M55.4311 97.5752H11.063C10.2304 97.5758 9.55498 96.9011 9.55444 96.0685C9.55444 96.068 9.55444 96.0674 9.55444 96.0667V25.2352C9.5539 24.4026 10.2286 23.7272 11.0612 23.7267H11.063H55.4311C59.5285 23.7307 62.8495 27.0509 62.8544 31.1483V90.1536C62.8495 94.251 59.5285 97.5713 55.4311 97.5752ZM12.5715 94.5582H55.4311C57.863 94.5559 59.8341 92.5855 59.8373 90.1536V31.1483C59.8342 28.7164 57.863 26.7459 55.4311 26.7437H12.5715V94.5582Z" fill="#30A2FF"/>
<path d="M49.8699 62.2302H22.5388C19.9682 62.2273 17.8851 60.1441 17.8822 57.5736V41.6709C17.8858 39.1009 19.9688 37.0185 22.5388 37.0157H49.8701C52.4401 37.0185 54.5231 39.1009 54.5267 41.6709V57.5736C54.5237 60.1441 52.4405 62.2273 49.8699 62.2302ZM22.5388 40.0328C21.6341 40.0333 20.9005 40.7662 20.8992 41.6709V57.5736C20.9 58.4788 21.6336 59.2124 22.5388 59.2131H49.8701C50.7753 59.2124 51.509 58.4788 51.5097 57.5736V41.6709C51.5082 40.7662 50.7748 40.0333 49.8701 40.0328H22.5388Z" fill="#30A2FF"/>
<path d="M40.5404 47.7314H31.8666C31.0334 47.7314 30.358 47.056 30.358 46.2229C30.358 45.3898 31.0334 44.7144 31.8666 44.7144H40.5404C41.3735 44.7144 42.0489 45.3898 42.0489 46.2229C42.0489 47.056 41.3735 47.7314 40.5404 47.7314Z" fill="#30A2FF"/>
<path d="M42.8976 54.5314H29.5096C28.6765 54.5314 28.0011 53.8561 28.0011 53.0229C28.0011 52.1898 28.6765 51.5144 29.5096 51.5144H42.8976C43.7307 51.5144 44.4061 52.1898 44.4061 53.0229C44.4061 53.8562 43.7307 54.5314 42.8976 54.5314Z" fill="#30A2FF"/>
</g>
<defs>
<clipPath id="clip0_506_911">
<rect width="102" height="102" fill="white" transform="translate(-0.000366211)"/>
</clipPath>
</defs>
</svg>
