<svg width="106" height="106" viewBox="0 0 106 106" fill="none" xmlns="http://www.w3.org/2000/svg">
<g clip-path="url(#clip0_506_925)">
<path d="M91.6748 48.9626C94.7788 46.7813 96.8342 43.1529 96.8342 39.0631C96.8342 32.3726 91.4231 26.9614 84.7325 26.9614C78.042 26.9614 72.6308 32.3726 72.6308 39.0631C72.6308 43.1529 74.6652 46.7813 77.7903 48.9626C75.1267 49.8854 72.6937 51.3116 70.6383 53.1573C67.8069 50.7453 64.4721 48.8997 60.8227 47.809C65.2482 45.1244 68.2264 40.2376 68.2264 34.6796C68.2264 26.2064 61.3681 19.348 52.8948 19.348C44.4215 19.348 37.5632 26.2273 37.5632 34.6796C37.5632 40.2376 40.5204 45.1244 44.9668 47.809C41.3593 48.8997 38.0665 50.7244 35.2561 53.0944C33.2007 51.2906 30.8097 49.8854 28.188 48.9836C31.2921 46.8023 33.3475 43.1739 33.3475 39.0841C33.3475 32.3935 27.9363 26.9824 21.2458 26.9824C14.5552 26.9824 9.14407 32.3935 9.14407 39.0841C9.14407 43.1739 11.1785 46.8023 14.3036 48.9836C5.97708 51.8569 -0.000366211 59.7639 -0.000366211 69.0552V70.4394C-0.000366211 70.4814 0.0415808 70.5233 0.0835277 70.5233H25.7341C25.5873 71.6769 25.5034 72.8724 25.5034 74.0678V75.494C25.5034 81.6603 30.4951 86.6519 36.6613 86.6519H69.1702C75.3364 86.6519 80.3281 81.6603 80.3281 75.494V74.0678C80.3281 72.8724 80.2442 71.6769 80.0974 70.5233H105.916C105.958 70.5233 106 70.4814 106 70.4394V69.0552C105.958 59.743 100.001 51.836 91.6748 48.9626ZM75.9866 39.0421C75.9866 34.2182 79.9086 30.2962 84.7325 30.2962C89.5564 30.2962 93.4785 34.2182 93.4785 39.0421C93.4785 43.8031 89.6403 47.6832 84.9003 47.7881C84.8374 47.7881 84.7954 47.7881 84.7325 47.7881C84.6696 47.7881 84.6277 47.7881 84.5647 47.7881C79.8038 47.7042 75.9866 43.8241 75.9866 39.0421ZM40.877 34.6796C40.877 28.073 46.2462 22.7038 52.8528 22.7038C59.4595 22.7038 64.8287 28.073 64.8287 34.6796C64.8287 41.0556 59.816 46.278 53.5449 46.6345C53.3142 46.6345 53.0835 46.6345 52.8528 46.6345C52.6221 46.6345 52.3914 46.6345 52.1607 46.6345C45.8896 46.278 40.877 41.0556 40.877 34.6796ZM12.4369 39.0421C12.4369 34.2182 16.359 30.2962 21.1829 30.2962C26.0068 30.2962 29.9288 34.2182 29.9288 39.0421C29.9288 43.8031 26.0907 47.6832 21.3506 47.7881C21.2877 47.7881 21.2458 47.7881 21.1829 47.7881C21.1199 47.7881 21.078 47.7881 21.0151 47.7881C16.2751 47.7042 12.4369 43.8241 12.4369 39.0421ZM26.3214 67.1466H3.39734C4.34115 58.2119 11.8916 51.2068 21.057 51.1438C21.099 51.1438 21.1409 51.1438 21.1829 51.1438C21.2248 51.1438 21.2668 51.1438 21.3087 51.1438C25.6712 51.1648 29.6561 52.7798 32.7393 55.4014C29.7191 58.6733 27.4749 62.7002 26.3214 67.1466ZM76.9304 75.494C76.9304 79.7936 73.4278 83.2962 69.1283 83.2962H36.6193C32.3198 83.2962 28.8172 79.7936 28.8172 75.494V74.0678C28.8172 61.0433 39.2201 50.3888 52.1607 50.0113C52.3914 50.0322 52.6431 50.0322 52.8738 50.0322C53.1045 50.0322 53.3562 50.0322 53.5869 50.0113C66.5275 50.3888 76.9304 61.0433 76.9304 74.0678V75.494ZM79.4262 67.1466C78.2727 62.7212 76.0705 58.7572 73.0713 55.4853C76.1753 52.8007 80.2022 51.1858 84.6067 51.1438C84.6486 51.1438 84.6906 51.1438 84.7325 51.1438C84.7745 51.1438 84.8164 51.1438 84.8584 51.1438C94.0238 51.2068 101.574 58.2119 102.518 67.1466H79.4262Z" fill="#30A2FF"/>
</g>
<defs>
<clipPath id="clip0_506_925">
<rect width="106" height="106" fill="white" transform="translate(-0.000366211)"/>
</clipPath>
</defs>
</svg>
